<svg width="435" height="140" viewBox="0 0 435 140" fill="none" xmlns="http://www.w3.org/2000/svg">
<rect x="0.5" y="0.5" width="434" height="139" rx="69.5" fill="black" fill-opacity="0.05"/>
<rect x="0.5" y="0.5" width="434" height="139" rx="69.5" stroke="#055BA6"/>
<rect x="118" width="317" height="140" rx="70" fill="#055BA6"/>
<path d="M158.922 37.66L160.662 33L161.862 33.3L160.602 37.96H159.082L158.922 37.66ZM162.522 37.66L164.262 33L165.462 33.3L164.202 37.96H162.682L162.522 37.66ZM167.671 47.3V46.48H173.831C174.737 46.48 175.191 46.0267 175.191 45.12V43.5C175.191 42.74 174.851 42.2933 174.171 42.16L169.871 41.28C168.404 40.9867 167.671 40.0067 167.671 38.34V37.26C167.671 35.22 168.691 34.2 170.731 34.2H175.571L176.471 34.9V35.72H170.711C169.804 35.72 169.351 36.1733 169.351 37.08V38.44C169.351 39.2 169.691 39.6467 170.371 39.78L174.671 40.64C176.137 40.9333 176.871 41.92 176.871 43.6V44.94C176.871 46.98 175.851 48 173.811 48H168.571L167.671 47.3ZM178.472 47.64L182.992 34.2H185.752L190.272 47.64L190.032 48H188.652L187.512 44.52H181.232L180.092 48H178.712L178.472 47.64ZM181.732 43H187.012L184.612 35.72H184.132L181.732 43ZM192.47 48V34.2H194.33L201.59 45.4V34.2H203.27V48H201.41L194.15 36.8V48H192.47ZM211.069 44.94V42.8H212.749V45.12C212.749 46.0267 213.202 46.48 214.109 46.48H217.229C218.136 46.48 218.589 46.0267 218.589 45.12V35.72H214.069V34.2H220.269V44.94C220.269 46.98 219.249 48 217.209 48H214.129C212.089 48 211.069 46.98 211.069 44.94ZM223.619 44.94V34.2H225.299V45.12C225.299 46.0267 225.753 46.48 226.659 46.48H230.979C231.886 46.48 232.339 46.0267 232.339 45.12V34.2H234.019V44.94C234.019 46.98 232.999 48 230.959 48H226.679C224.639 48 223.619 46.98 223.619 44.94ZM236.109 47.64L240.629 34.2H243.389L247.909 47.64L247.669 48H246.289L245.149 44.52H238.869L237.729 48H236.349L236.109 47.64ZM239.369 43H244.649L242.249 35.72H241.769L239.369 43ZM250.107 48V34.2H251.967L259.227 45.4V34.2H260.907V48H259.047L251.787 36.8V48H250.107ZM269.306 48V34.2H275.646C277.686 34.2 278.706 35.22 278.706 37.26V38.64C278.706 39.0933 278.573 39.48 278.306 39.8L277.606 40.64L278.446 41.34C278.886 41.7 279.106 42.2333 279.106 42.94V44.94C279.106 46.98 278.086 48 276.046 48H269.306ZM270.986 46.48H276.066C276.973 46.48 277.426 46.0267 277.426 45.12V42.88C277.426 41.9733 276.973 41.52 276.066 41.52H270.986V46.48ZM270.986 40H275.666C276.573 40 277.026 39.5467 277.026 38.64V37.08C277.026 36.1733 276.573 35.72 275.666 35.72H270.986V40ZM281.977 44.94V37.26C281.977 35.22 282.997 34.2 285.037 34.2H289.717C291.757 34.2 292.777 35.22 292.777 37.26V44.94C292.777 46.98 291.757 48 289.717 48H285.037C282.997 48 281.977 46.98 281.977 44.94ZM283.657 45.12C283.657 46.0267 284.11 46.48 285.017 46.48H289.737C290.644 46.48 291.097 46.0267 291.097 45.12V37.08C291.097 36.1733 290.644 35.72 289.737 35.72H285.017C284.11 35.72 283.657 36.1733 283.657 37.08V45.12ZM295.581 47.3V46.48H301.741C302.648 46.48 303.101 46.0267 303.101 45.12V43.5C303.101 42.74 302.761 42.2933 302.081 42.16L297.781 41.28C296.314 40.9867 295.581 40.0067 295.581 38.34V37.26C295.581 35.22 296.601 34.2 298.641 34.2H303.481L304.381 34.9V35.72H298.621C297.714 35.72 297.261 36.1733 297.261 37.08V38.44C297.261 39.2 297.601 39.6467 298.281 39.78L302.581 40.64C304.048 40.9333 304.781 41.92 304.781 43.6V44.94C304.781 46.98 303.761 48 301.721 48H296.481L295.581 47.3ZM307.582 44.94V37.26C307.582 35.22 308.602 34.2 310.642 34.2H316.282L317.182 34.9V35.72H310.622C309.716 35.72 309.262 36.1733 309.262 37.08V45.12C309.262 46.0267 309.716 46.48 310.622 46.48H317.182V47.3L316.282 48H310.642C308.602 48 307.582 46.98 307.582 44.94ZM319.789 44.94V37.26C319.789 35.22 320.809 34.2 322.849 34.2H327.529C329.569 34.2 330.589 35.22 330.589 37.26V44.94C330.589 46.98 329.569 48 327.529 48H322.849C320.809 48 319.789 46.98 319.789 44.94ZM321.469 45.12C321.469 46.0267 321.923 46.48 322.829 46.48H327.549C328.456 46.48 328.909 46.0267 328.909 45.12V37.08C328.909 36.1733 328.456 35.72 327.549 35.72H322.829C321.923 35.72 321.469 36.1733 321.469 37.08V45.12ZM332.833 50.5L333.953 45.84H335.573L335.753 46.14L334.073 50.8L332.833 50.5ZM342.593 47.64L347.113 34.2H349.873L354.393 47.64L354.153 48H352.773L351.633 44.52H345.353L344.213 48H342.833L342.593 47.64ZM345.853 43H351.133L348.733 35.72H348.253L345.853 43ZM356.591 48V34.2H358.271V46.48H364.991V48H356.591ZM367.275 48V34.2H369.495L374.115 44L378.715 34.2H380.935V48H379.255V36.72L374.895 46H373.315L368.955 36.72V48H367.275ZM383.14 47.64L387.66 34.2H390.42L394.94 47.64L394.7 48H393.32L392.18 44.52H385.9L384.76 48H383.38L383.14 47.64ZM386.4 43H391.68L389.28 35.72H388.8L386.4 43ZM172.88 76V62.2H175.1L179.72 72L184.32 62.2H186.54V76H184.86V64.72L180.5 74H178.92L174.56 64.72V76H172.88ZM188.746 75.64L193.266 62.2H196.026L200.546 75.64L200.306 76H198.926L197.786 72.52H191.506L190.366 76H188.986L188.746 75.64ZM192.006 71H197.286L194.886 63.72H194.406L192.006 71ZM193.406 60.54L196.006 57.66L196.966 58.6L194.246 61.36L193.406 60.54ZM200.427 63.72V62.2H211.307V63.72H206.707V76H205.027V63.72H200.427ZM213.583 76V62.2H222.583V63.72H215.263V68H221.983V69.52H215.263V74.48H222.583V76H213.583ZM225.38 76V62.2H231.92C233.96 62.2 234.98 63.22 234.98 65.26V67.46C234.98 69.1933 234.24 70.18 232.76 70.42L235.38 75.6L235.16 76H233.74L230.96 70.52H227.06V76H225.38ZM227.06 69H231.94C232.847 69 233.3 68.5467 233.3 67.64V65.08C233.3 64.1733 232.847 63.72 231.94 63.72H227.06V69ZM242.978 76V62.2H248.378C251.711 62.2 253.378 63.8667 253.378 67.2V71C253.378 74.3333 251.711 76 248.378 76H242.978ZM244.658 74.48H248.478C250.624 74.48 251.698 73.4067 251.698 71.26V66.94C251.698 64.7933 250.624 63.72 248.478 63.72H244.658V74.48ZM256.571 76V62.2H265.571V63.72H258.251V68H264.971V69.52H258.251V74.48H265.571V76H256.571ZM273.053 72.94V62.2H274.733V73.12C274.733 74.0267 275.186 74.48 276.093 74.48H280.413C281.32 74.48 281.773 74.0267 281.773 73.12V62.2H283.453V72.94C283.453 74.98 282.433 76 280.393 76H276.113C274.073 76 273.053 74.98 273.053 72.94ZM286.943 76V62.2H288.803L296.063 73.4V62.2H297.743V76H295.883L288.623 64.8V76H286.943ZM306.142 76V62.2H315.142V63.72H307.822V68.6H314.542V70.12H307.822V76H306.142ZM317.428 72.94V62.2H319.108V73.12C319.108 74.0267 319.561 74.48 320.468 74.48H324.788C325.695 74.48 326.148 74.0267 326.148 73.12V62.2H327.828V72.94C327.828 74.98 326.808 76 324.768 76H320.488C318.448 76 317.428 74.98 317.428 72.94ZM329.998 63.72V62.2H340.878V63.72H336.278V76H334.598V63.72H329.998ZM343.034 72.94V62.2H344.714V73.12C344.714 74.0267 345.167 74.48 346.074 74.48H350.394C351.3 74.48 351.754 74.0267 351.754 73.12V62.2H353.434V72.94C353.434 74.98 352.414 76 350.374 76H346.094C344.054 76 343.034 74.98 343.034 72.94ZM356.923 76V62.2H363.463C365.503 62.2 366.523 63.22 366.523 65.26V67.46C366.523 69.1933 365.783 70.18 364.303 70.42L366.923 75.6L366.703 76H365.283L362.503 70.52H358.603V76H356.923ZM358.603 69H363.483C364.39 69 364.843 68.5467 364.843 67.64V65.08C364.843 64.1733 364.39 63.72 363.483 63.72H358.603V69ZM369.516 72.94V65.26C369.516 63.22 370.536 62.2 372.576 62.2H377.256C379.296 62.2 380.316 63.22 380.316 65.26V72.94C380.316 74.98 379.296 76 377.256 76H372.576C370.536 76 369.516 74.98 369.516 72.94ZM371.196 73.12C371.196 74.0267 371.649 74.48 372.556 74.48H377.276C378.183 74.48 378.636 74.0267 378.636 73.12V65.08C378.636 64.1733 378.183 63.72 377.276 63.72H372.556C371.649 63.72 371.196 64.1733 371.196 65.08V73.12ZM177.861 104V90.2H184.201C186.241 90.2 187.261 91.22 187.261 93.26V94.64C187.261 95.0933 187.127 95.48 186.861 95.8L186.161 96.64L187.001 97.34C187.441 97.7 187.661 98.2333 187.661 98.94V100.94C187.661 102.98 186.641 104 184.601 104H177.861ZM179.541 102.48H184.621C185.527 102.48 185.981 102.027 185.981 101.12V98.88C185.981 97.9733 185.527 97.52 184.621 97.52H179.541V102.48ZM179.541 96H184.221C185.127 96 185.581 95.5467 185.581 94.64V93.08C185.581 92.1733 185.127 91.72 184.221 91.72H179.541V96ZM190.732 104V90.2H197.272C199.312 90.2 200.332 91.22 200.332 93.26V95.46C200.332 97.1933 199.592 98.18 198.112 98.42L200.732 103.6L200.512 104H199.092L196.312 98.52H192.412V104H190.732ZM192.412 97H197.292C198.198 97 198.652 96.5467 198.652 95.64V93.08C198.652 92.1733 198.198 91.72 197.292 91.72H192.412V97ZM203.525 104V90.2H205.205V104H203.525ZM208.798 104V90.2H210.478V102.48H217.198V104H208.798ZM219.482 104V90.2H221.162V102.48H227.882V104H219.482ZM228.765 103.64L233.285 90.2H236.045L240.565 103.64L240.325 104H238.945L237.805 100.52H231.525L230.385 104H229.005L228.765 103.64ZM232.025 99H237.305L234.905 91.72H234.425L232.025 99ZM242.763 104V90.2H244.623L251.883 101.4V90.2H253.563V104H251.703L244.443 92.8V104H242.763ZM255.837 91.72V90.2H266.717V91.72H262.117V104H260.437V91.72H255.837ZM268.993 104V90.2H277.993V91.72H270.673V96H277.393V97.52H270.673V102.48H277.993V104H268.993ZM284.195 90.56L284.415 90.2H285.835L289.595 97.18L293.355 90.2H294.775L294.995 90.56L290.435 98.88V104H288.755V98.88L284.195 90.56ZM302.001 104V90.2H304.221L308.841 100L313.441 90.2H315.661V104H313.981V92.72L309.621 102H308.041L303.681 92.72V104H302.001ZM319.267 104V90.2H328.267V91.72H320.947V96H327.667V97.52H320.947V102.48H328.267V104H319.267ZM330.464 100.94V98.8H332.144V101.12C332.144 102.027 332.597 102.48 333.504 102.48H336.624C337.53 102.48 337.984 102.027 337.984 101.12V91.72H333.464V90.2H339.664V100.94C339.664 102.98 338.644 104 336.604 104H333.524C331.484 104 330.464 102.98 330.464 100.94ZM342.934 100.94V93.26C342.934 91.22 343.954 90.2 345.994 90.2H350.674C352.714 90.2 353.734 91.22 353.734 93.26V100.94C353.734 102.98 352.714 104 350.674 104H345.994C343.954 104 342.934 102.98 342.934 100.94ZM344.614 101.12C344.614 102.027 345.067 102.48 345.974 102.48H350.694C351.601 102.48 352.054 102.027 352.054 101.12V93.08C352.054 92.1733 351.601 91.72 350.694 91.72H345.974C345.067 91.72 344.614 92.1733 344.614 93.08V101.12ZM357.138 104V90.2H363.678C365.718 90.2 366.738 91.22 366.738 93.26V95.46C366.738 97.1933 365.998 98.18 364.518 98.42L367.138 103.6L366.918 104H365.498L362.718 98.52H358.818V104H357.138ZM358.818 97H363.698C364.605 97 365.058 96.5467 365.058 95.64V93.08C365.058 92.1733 364.605 91.72 363.698 91.72H358.818V97ZM369.251 93.84L370.511 89.2H372.011L372.191 89.48L370.451 94.16L369.251 93.84ZM372.851 93.84L374.111 89.2H375.611L375.791 89.48L374.051 94.16L372.851 93.84Z" fill="#F2F2F2"/>
</svg>
