<svg width="435" height="140" viewBox="0 0 435 140" fill="none" xmlns="http://www.w3.org/2000/svg">
<rect x="0.5" y="0.5" width="434" height="139" rx="69.5" fill="black" fill-opacity="0.05"/>
<rect x="0.5" y="0.5" width="434" height="139" rx="69.5" stroke="#055BA6"/>
<rect x="118" width="317" height="140" rx="70" fill="#055BA6"/>
<path d="M161.52 37.66L163.26 33L164.46 33.3L163.2 37.96H161.68L161.52 37.66ZM165.12 37.66L166.86 33L168.06 33.3L166.8 37.96H165.28L165.12 37.66ZM170.268 47.3V46.48H176.428C177.335 46.48 177.788 46.0267 177.788 45.12V43.5C177.788 42.74 177.448 42.2933 176.768 42.16L172.468 41.28C171.002 40.9867 170.268 40.0067 170.268 38.34V37.26C170.268 35.22 171.288 34.2 173.328 34.2H178.168L179.068 34.9V35.72H173.308C172.402 35.72 171.948 36.1733 171.948 37.08V38.44C171.948 39.2 172.288 39.6467 172.968 39.78L177.268 40.64C178.735 40.9333 179.468 41.92 179.468 43.6V44.94C179.468 46.98 178.448 48 176.408 48H171.168L170.268 47.3ZM181.07 47.64L185.59 34.2H188.35L192.87 47.64L192.63 48H191.25L190.11 44.52H183.83L182.69 48H181.31L181.07 47.64ZM184.33 43H189.61L187.21 35.72H186.73L184.33 43ZM195.068 48V34.2H196.928L204.188 45.4V34.2H205.868V48H204.008L196.748 36.8V48H195.068ZM213.667 44.94V42.8H215.347V45.12C215.347 46.0267 215.8 46.48 216.707 46.48H219.827C220.733 46.48 221.187 46.0267 221.187 45.12V35.72H216.667V34.2H222.867V44.94C222.867 46.98 221.847 48 219.807 48H216.727C214.687 48 213.667 46.98 213.667 44.94ZM226.217 44.94V34.2H227.897V45.12C227.897 46.0267 228.35 46.48 229.257 46.48H233.577C234.484 46.48 234.937 46.0267 234.937 45.12V34.2H236.617V44.94C236.617 46.98 235.597 48 233.557 48H229.277C227.237 48 226.217 46.98 226.217 44.94ZM238.707 47.64L243.227 34.2H245.987L250.507 47.64L250.267 48H248.887L247.747 44.52H241.467L240.327 48H238.947L238.707 47.64ZM241.967 43H247.247L244.847 35.72H244.367L241.967 43ZM252.704 48V34.2H254.564L261.824 45.4V34.2H263.504V48H261.644L254.384 36.8V48H252.704ZM271.904 48V34.2H278.244C280.284 34.2 281.304 35.22 281.304 37.26V38.64C281.304 39.0933 281.17 39.48 280.904 39.8L280.204 40.64L281.044 41.34C281.484 41.7 281.704 42.2333 281.704 42.94V44.94C281.704 46.98 280.684 48 278.644 48H271.904ZM273.584 46.48H278.664C279.57 46.48 280.024 46.0267 280.024 45.12V42.88C280.024 41.9733 279.57 41.52 278.664 41.52H273.584V46.48ZM273.584 40H278.264C279.17 40 279.624 39.5467 279.624 38.64V37.08C279.624 36.1733 279.17 35.72 278.264 35.72H273.584V40ZM284.575 44.94V37.26C284.575 35.22 285.595 34.2 287.635 34.2H292.315C294.355 34.2 295.375 35.22 295.375 37.26V44.94C295.375 46.98 294.355 48 292.315 48H287.635C285.595 48 284.575 46.98 284.575 44.94ZM286.255 45.12C286.255 46.0267 286.708 46.48 287.615 46.48H292.335C293.241 46.48 293.695 46.0267 293.695 45.12V37.08C293.695 36.1733 293.241 35.72 292.335 35.72H287.615C286.708 35.72 286.255 36.1733 286.255 37.08V45.12ZM298.179 47.3V46.48H304.339C305.245 46.48 305.699 46.0267 305.699 45.12V43.5C305.699 42.74 305.359 42.2933 304.679 42.16L300.379 41.28C298.912 40.9867 298.179 40.0067 298.179 38.34V37.26C298.179 35.22 299.199 34.2 301.239 34.2H306.079L306.979 34.9V35.72H301.219C300.312 35.72 299.859 36.1733 299.859 37.08V38.44C299.859 39.2 300.199 39.6467 300.879 39.78L305.179 40.64C306.645 40.9333 307.379 41.92 307.379 43.6V44.94C307.379 46.98 306.359 48 304.319 48H299.079L298.179 47.3ZM310.18 44.94V37.26C310.18 35.22 311.2 34.2 313.24 34.2H318.88L319.78 34.9V35.72H313.22C312.313 35.72 311.86 36.1733 311.86 37.08V45.12C311.86 46.0267 312.313 46.48 313.22 46.48H319.78V47.3L318.88 48H313.24C311.2 48 310.18 46.98 310.18 44.94ZM322.387 44.94V37.26C322.387 35.22 323.407 34.2 325.447 34.2H330.127C332.167 34.2 333.187 35.22 333.187 37.26V44.94C333.187 46.98 332.167 48 330.127 48H325.447C323.407 48 322.387 46.98 322.387 44.94ZM324.067 45.12C324.067 46.0267 324.52 46.48 325.427 46.48H330.147C331.054 46.48 331.507 46.0267 331.507 45.12V37.08C331.507 36.1733 331.054 35.72 330.147 35.72H325.427C324.52 35.72 324.067 36.1733 324.067 37.08V45.12ZM339.996 47.64L344.516 34.2H347.276L351.796 47.64L351.556 48H350.176L349.036 44.52H342.756L341.616 48H340.236L339.996 47.64ZM343.256 43H348.536L346.136 35.72H345.656L343.256 43ZM353.993 48V34.2H355.673V46.48H362.393V48H353.993ZM364.677 48V34.2H366.897L371.517 44L376.117 34.2H378.337V48H376.657V36.72L372.297 46H370.717L366.357 36.72V48H364.677ZM380.543 47.64L385.063 34.2H387.823L392.343 47.64L392.103 48H390.723L389.583 44.52H383.303L382.163 48H380.783L380.543 47.64ZM383.803 43H389.083L386.683 35.72H386.203L383.803 43ZM172.88 76V62.2H175.1L179.72 72L184.32 62.2H186.54V76H184.86V64.72L180.5 74H178.92L174.56 64.72V76H172.88ZM188.746 75.64L193.266 62.2H196.026L200.546 75.64L200.306 76H198.926L197.786 72.52H191.506L190.366 76H188.986L188.746 75.64ZM192.006 71H197.286L194.886 63.72H194.406L192.006 71ZM193.406 60.54L196.006 57.66L196.966 58.6L194.246 61.36L193.406 60.54ZM200.427 63.72V62.2H211.307V63.72H206.707V76H205.027V63.72H200.427ZM213.583 76V62.2H222.583V63.72H215.263V68H221.983V69.52H215.263V74.48H222.583V76H213.583ZM225.38 76V62.2H231.92C233.96 62.2 234.98 63.22 234.98 65.26V67.46C234.98 69.1933 234.24 70.18 232.76 70.42L235.38 75.6L235.16 76H233.74L230.96 70.52H227.06V76H225.38ZM227.06 69H231.94C232.847 69 233.3 68.5467 233.3 67.64V65.08C233.3 64.1733 232.847 63.72 231.94 63.72H227.06V69ZM242.978 76V62.2H248.378C251.711 62.2 253.378 63.8667 253.378 67.2V71C253.378 74.3333 251.711 76 248.378 76H242.978ZM244.658 74.48H248.478C250.624 74.48 251.698 73.4067 251.698 71.26V66.94C251.698 64.7933 250.624 63.72 248.478 63.72H244.658V74.48ZM256.571 76V62.2H265.571V63.72H258.251V68H264.971V69.52H258.251V74.48H265.571V76H256.571ZM273.053 72.94V62.2H274.733V73.12C274.733 74.0267 275.186 74.48 276.093 74.48H280.413C281.32 74.48 281.773 74.0267 281.773 73.12V62.2H283.453V72.94C283.453 74.98 282.433 76 280.393 76H276.113C274.073 76 273.053 74.98 273.053 72.94ZM286.943 76V62.2H288.803L296.063 73.4V62.2H297.743V76H295.883L288.623 64.8V76H286.943ZM306.142 76V62.2H315.142V63.72H307.822V68.6H314.542V70.12H307.822V76H306.142ZM317.428 72.94V62.2H319.108V73.12C319.108 74.0267 319.561 74.48 320.468 74.48H324.788C325.695 74.48 326.148 74.0267 326.148 73.12V62.2H327.828V72.94C327.828 74.98 326.808 76 324.768 76H320.488C318.448 76 317.428 74.98 317.428 72.94ZM329.998 63.72V62.2H340.878V63.72H336.278V76H334.598V63.72H329.998ZM343.034 72.94V62.2H344.714V73.12C344.714 74.0267 345.167 74.48 346.074 74.48H350.394C351.3 74.48 351.754 74.0267 351.754 73.12V62.2H353.434V72.94C353.434 74.98 352.414 76 350.374 76H346.094C344.054 76 343.034 74.98 343.034 72.94ZM356.923 76V62.2H363.463C365.503 62.2 366.523 63.22 366.523 65.26V67.46C366.523 69.1933 365.783 70.18 364.303 70.42L366.923 75.6L366.703 76H365.283L362.503 70.52H358.603V76H356.923ZM358.603 69H363.483C364.39 69 364.843 68.5467 364.843 67.64V65.08C364.843 64.1733 364.39 63.72 363.483 63.72H358.603V69ZM369.516 72.94V65.26C369.516 63.22 370.536 62.2 372.576 62.2H377.256C379.296 62.2 380.316 63.22 380.316 65.26V72.94C380.316 74.98 379.296 76 377.256 76H372.576C370.536 76 369.516 74.98 369.516 72.94ZM371.196 73.12C371.196 74.0267 371.649 74.48 372.556 74.48H377.276C378.183 74.48 378.636 74.0267 378.636 73.12V65.08C378.636 64.1733 378.183 63.72 377.276 63.72H372.556C371.649 63.72 371.196 64.1733 371.196 65.08V73.12ZM177.861 104V90.2H184.201C186.241 90.2 187.261 91.22 187.261 93.26V94.64C187.261 95.0933 187.127 95.48 186.861 95.8L186.161 96.64L187.001 97.34C187.441 97.7 187.661 98.2333 187.661 98.94V100.94C187.661 102.98 186.641 104 184.601 104H177.861ZM179.541 102.48H184.621C185.527 102.48 185.981 102.027 185.981 101.12V98.88C185.981 97.9733 185.527 97.52 184.621 97.52H179.541V102.48ZM179.541 96H184.221C185.127 96 185.581 95.5467 185.581 94.64V93.08C185.581 92.1733 185.127 91.72 184.221 91.72H179.541V96ZM190.732 104V90.2H197.272C199.312 90.2 200.332 91.22 200.332 93.26V95.46C200.332 97.1933 199.592 98.18 198.112 98.42L200.732 103.6L200.512 104H199.092L196.312 98.52H192.412V104H190.732ZM192.412 97H197.292C198.198 97 198.652 96.5467 198.652 95.64V93.08C198.652 92.1733 198.198 91.72 197.292 91.72H192.412V97ZM203.525 104V90.2H205.205V104H203.525ZM208.798 104V90.2H210.478V102.48H217.198V104H208.798ZM219.482 104V90.2H221.162V102.48H227.882V104H219.482ZM228.765 103.64L233.285 90.2H236.045L240.565 103.64L240.325 104H238.945L237.805 100.52H231.525L230.385 104H229.005L228.765 103.64ZM232.025 99H237.305L234.905 91.72H234.425L232.025 99ZM242.763 104V90.2H244.623L251.883 101.4V90.2H253.563V104H251.703L244.443 92.8V104H242.763ZM255.837 91.72V90.2H266.717V91.72H262.117V104H260.437V91.72H255.837ZM268.993 104V90.2H277.993V91.72H270.673V96H277.393V97.52H270.673V102.48H277.993V104H268.993ZM284.195 90.56L284.415 90.2H285.835L289.595 97.18L293.355 90.2H294.775L294.995 90.56L290.435 98.88V104H288.755V98.88L284.195 90.56ZM302.001 104V90.2H304.221L308.841 100L313.441 90.2H315.661V104H313.981V92.72L309.621 102H308.041L303.681 92.72V104H302.001ZM319.267 104V90.2H328.267V91.72H320.947V96H327.667V97.52H320.947V102.48H328.267V104H319.267ZM330.464 100.94V98.8H332.144V101.12C332.144 102.027 332.597 102.48 333.504 102.48H336.624C337.53 102.48 337.984 102.027 337.984 101.12V91.72H333.464V90.2H339.664V100.94C339.664 102.98 338.644 104 336.604 104H333.524C331.484 104 330.464 102.98 330.464 100.94ZM342.934 100.94V93.26C342.934 91.22 343.954 90.2 345.994 90.2H350.674C352.714 90.2 353.734 91.22 353.734 93.26V100.94C353.734 102.98 352.714 104 350.674 104H345.994C343.954 104 342.934 102.98 342.934 100.94ZM344.614 101.12C344.614 102.027 345.067 102.48 345.974 102.48H350.694C351.601 102.48 352.054 102.027 352.054 101.12V93.08C352.054 92.1733 351.601 91.72 350.694 91.72H345.974C345.067 91.72 344.614 92.1733 344.614 93.08V101.12ZM357.138 104V90.2H363.678C365.718 90.2 366.738 91.22 366.738 93.26V95.46C366.738 97.1933 365.998 98.18 364.518 98.42L367.138 103.6L366.918 104H365.498L362.718 98.52H358.818V104H357.138ZM358.818 97H363.698C364.605 97 365.058 96.5467 365.058 95.64V93.08C365.058 92.1733 364.605 91.72 363.698 91.72H358.818V97ZM369.251 93.84L370.511 89.2H372.011L372.191 89.48L370.451 94.16L369.251 93.84ZM372.851 93.84L374.111 89.2H375.611L375.791 89.48L374.051 94.16L372.851 93.84Z" fill="#F2F2F2"/>
</svg>
